<?xml version="1.0" standalone="no"?>
<!DOCTYPE svg PUBLIC "-//W3C//DTD SVG 20010904//EN"
 "http://www.w3.org/TR/2001/REC-SVG-20010904/DTD/svg10.dtd">
<svg version="1.0" xmlns="http://www.w3.org/2000/svg"
 width="250.000000pt" height="250.000000pt" viewBox="0 0 250.000000 250.000000"
 preserveAspectRatio="xMidYMid meet">
<metadata>
Created by potrace 1.16, written by Peter Selinger 2001-2019
</metadata>
<g transform="translate(0.000000,250.000000) scale(0.100000,-0.100000)"
fill="#000000" stroke="none">
<path d="M0 1250 l0 -1250 1250 0 1250 0 0 1250 0 1250 -1250 0 -1250 0 0
-1250z m1123 1193 c-7 -2 -21 -2 -30 0 -10 3 -4 5 12 5 17 0 24 -2 18 -5z
m120 0 c-7 -2 -19 -2 -25 0 -7 3 -2 5 12 5 14 0 19 -2 13 -5z m-813 -286 c0
-2 -12 -14 -27 -28 l-28 -24 24 28 c23 25 31 32 31 24z m1120 -392 c19 -19 32
-35 29 -35 -3 0 -20 16 -39 35 -19 19 -32 35 -29 35 3 0 20 -16 39 -35z m-362
-40 c-3 -3 -9 2 -12 12 -6 14 -5 15 5 6 7 -7 10 -15 7 -18z m-70 -321 c-2 -1
-80 -4 -175 -6 -94 -2 -166 0 -160 4 7 4 83 8 170 8 l157 0 2 158 2 157 3
-159 c2 -87 2 -160 1 -162z m-811 -6 c-3 -7 -5 -2 -5 12 0 14 2 19 5 13 2 -7
2 -19 0 -25z m-220 -45 c-3 -10 -5 -4 -5 12 0 17 2 24 5 18 2 -7 2 -21 0 -30z
m693 -8 c0 -5 -5 -3 -10 5 -5 8 -10 20 -10 25 0 6 5 3 10 -5 5 -8 10 -19 10
-25z m400 0 c-10 -13 -44 -15 -204 -13 l-191 3 190 2 c106 2 194 8 199 13 16
16 20 12 6 -5z m-873 -37 c-3 -7 -5 -2 -5 12 0 14 2 19 5 13 2 -7 2 -19 0 -25z
m1651 -205 c-15 -2 -42 -2 -60 0 -18 2 -6 4 27 4 33 0 48 -2 33 -4z m349 0
c-20 -2 -52 -2 -70 0 -17 2 0 4 38 4 39 0 53 -2 32 -4z m-1129 -290 c-10 -2
-26 -2 -35 0 -10 3 -2 5 17 5 19 0 27 -2 18 -5z m-768 -208 c19 -19 32 -35 29
-35 -3 0 -20 16 -39 35 -19 19 -32 35 -29 35 3 0 20 -16 39 -35z m697 -311
c-3 -3 -12 -4 -19 -1 -8 3 -5 6 6 6 11 1 17 -2 13 -5z m130 0 c-3 -3 -12 -4
-19 -1 -8 3 -5 6 6 6 11 1 17 -2 13 -5z m67 -132 c2 -4 -8 -8 -22 -7 -23 0
-27 -4 -27 -30 0 -26 4 -30 27 -30 14 1 24 -3 22 -7 -8 -12 -38 -10 -52 4 -15
15 -15 51 0 66 14 14 44 16 52 4z m386 -15 c12 -4 11 -6 -2 -6 -23 -1 -25 -47
-3 -54 11 -4 10 -4 -2 -3 -11 1 -20 12 -24 31 -6 33 0 62 10 47 3 -5 13 -12
21 -15z m175 -17 c17 0 25 7 28 23 2 12 4 0 4 -28 0 -27 -2 -40 -4 -27 -3 15
-11 22 -28 22 -17 0 -25 -7 -28 -22 -2 -13 -4 0 -4 27 0 28 2 40 4 28 3 -16
11 -23 28 -23z m-490 -15 c0 -25 -4 -30 -25 -30 -16 0 -26 6 -28 18 -6 30 6
49 30 45 18 -2 23 -9 23 -33z m101 -5 l2 -35 -5 33 c-2 19 -10 32 -19 32 -9 0
-15 -12 -16 -32 l-1 -33 -4 33 c-3 18 -10 32 -18 32 -8 0 -15 -14 -18 -32 -4
-33 -4 -33 -5 4 l-2 38 43 -3 c41 -2 42 -3 43 -37z m89 5 c0 -22 -5 -31 -20
-34 -11 -2 -23 -8 -27 -15 -4 -6 -8 10 -8 35 0 44 1 46 28 45 23 -1 27 -5 27
-31z m43 -23 c9 2 20 17 23 33 7 30 7 30 8 -6 1 -33 -1 -36 -26 -35 -24 1 -28
6 -30 34 l-3 32 6 -31 c4 -21 10 -29 22 -27z m160 36 c3 -13 -3 -18 -22 -18
-14 0 -26 -5 -26 -11 0 -7 11 -9 26 -6 16 3 22 1 16 -5 -26 -26 -62 11 -48 48
8 21 50 14 54 -8z m39 9 c-9 -7 -18 -23 -20 -37 -3 -19 -5 -17 -6 10 -1 30 3
36 20 37 19 2 19 0 6 -10z m168 -22 c0 -25 -4 -30 -25 -30 -16 0 -26 6 -28 18
-6 30 6 49 30 45 18 -2 23 -9 23 -33z m70 0 c0 -22 -5 -31 -20 -34 -11 -2 -23
-8 -27 -15 -4 -6 -8 10 -8 35 0 44 1 46 28 45 23 -1 27 -5 27 -31z m83 13 c3
-13 -3 -18 -22 -18 -14 0 -26 -5 -26 -11 0 -7 11 -9 26 -6 16 3 22 1 16 -5
-26 -26 -62 11 -48 48 8 21 50 14 54 -8z m96 13 c4 -5 -3 -7 -14 -4 -16 4 -20
0 -20 -22 0 -23 3 -26 21 -22 16 4 19 3 11 -5 -16 -16 -42 -1 -42 25 0 13 3
27 7 30 9 10 31 9 37 -2z m71 -26 c0 -25 -4 -30 -25 -30 -16 0 -26 6 -28 18
-6 30 6 49 30 45 18 -2 23 -9 23 -33z m111 -5 l2 -35 -5 33 c-2 19 -10 32 -19
32 -9 0 -15 -12 -16 -32 l-1 -33 -4 33 c-3 18 -10 32 -18 32 -8 0 -15 -14 -18
-32 -4 -33 -4 -33 -5 4 l-2 38 43 -3 c41 -2 42 -3 43 -37z"/>
<path d="M1330 115 c0 -18 5 -25 20 -25 15 0 20 7 20 25 0 18 -5 25 -20 25
-15 0 -20 -7 -20 -25z"/>
<path d="M1527 133 c-15 -15 -7 -43 13 -43 15 0 20 7 20 25 0 24 -18 34 -33
18z"/>
<path d="M1720 130 c0 -5 9 -10 20 -10 11 0 20 5 20 10 0 6 -9 10 -20 10 -11
0 -20 -4 -20 -10z"/>
<path d="M1930 115 c0 -18 5 -25 20 -25 15 0 20 7 20 25 0 18 -5 25 -20 25
-15 0 -20 -7 -20 -25z"/>
<path d="M2007 133 c-15 -15 -7 -43 13 -43 15 0 20 7 20 25 0 24 -18 34 -33
18z"/>
<path d="M2080 130 c0 -5 9 -10 20 -10 11 0 20 5 20 10 0 6 -9 10 -20 10 -11
0 -20 -4 -20 -10z"/>
<path d="M2250 115 c0 -18 5 -25 20 -25 15 0 20 7 20 25 0 18 -5 25 -20 25
-15 0 -20 -7 -20 -25z"/>
</g>
</svg>
